<svg width="28" height="28" viewBox="0 0 28 28" fill="none" xmlns="http://www.w3.org/2000/svg">
<g clip-path="url(#clip0_1136_54001)">
<rect width="28" height="28" rx="14" fill="white"/>
<g clip-path="url(#clip1_1136_54001)">
<path d="M-14 0H42.257V28.1285H-14V0Z" fill="#008751"/>
<path d="M7.70001 0H20.3V28H7.70001V0Z" fill="white"/>
</g>
<g clip-path="url(#clip2_1136_54001)">
<path d="M-12 1.55469H1L1.53625 2.09094H26.4637L27 1.55469H40V27.5547H27L26.4637 27.0184H1.53625L1 27.5547H-12V1.55469Z" fill="#FF0000"/>
<path d="M1 1.55469H27V27.5547H1V1.55469ZM14.4875 25.5505L14.2437 20.8759C14.2402 20.7991 14.254 20.7224 14.284 20.6515C14.314 20.5806 14.3595 20.5174 14.4172 20.4665C14.4749 20.4156 14.5433 20.3782 14.6173 20.3572C14.6914 20.3362 14.7692 20.3321 14.845 20.3451L19.4979 21.163L18.8696 19.4297C18.8441 19.3607 18.8408 19.2855 18.8603 19.2146C18.8797 19.1437 18.9208 19.0806 18.9779 19.0343L24.075 14.9068L22.9267 14.3705C22.8491 14.3339 22.7876 14.2702 22.7537 14.1914C22.7198 14.1126 22.7158 14.0241 22.7425 13.9426L23.75 10.8443L20.8142 11.4672C20.7346 11.4838 20.6518 11.4723 20.5797 11.4348C20.5077 11.3973 20.4508 11.336 20.4188 11.2614L19.85 9.92344L17.5588 12.3826C17.5064 12.4379 17.4375 12.4746 17.3624 12.4874C17.2873 12.5002 17.2101 12.4884 17.1424 12.4536C17.0747 12.4188 17.02 12.363 16.9867 12.2945C16.9534 12.2261 16.9431 12.1486 16.9575 12.0739L18.0625 6.37552L16.2913 7.39927C16.2497 7.42364 16.2035 7.43922 16.1557 7.44503C16.1078 7.45084 16.0593 7.44676 16.0131 7.43305C15.9669 7.41934 15.924 7.39629 15.887 7.36532C15.8501 7.33435 15.8199 7.29613 15.7983 7.25302L14 3.72135L12.2017 7.25302C12.1801 7.29613 12.1499 7.33435 12.113 7.36532C12.076 7.39629 12.0331 7.41934 11.9869 7.43305C11.9407 7.44676 11.8922 7.45084 11.8443 7.44503C11.7965 7.43922 11.7503 7.42364 11.7087 7.39927L9.9375 6.37552L11.0425 12.0739C11.0569 12.1486 11.0466 12.2261 11.0133 12.2945C10.98 12.363 10.9253 12.4188 10.8576 12.4536C10.7899 12.4884 10.7127 12.5002 10.6376 12.4874C10.5625 12.4746 10.4936 12.4379 10.4412 12.3826L8.15 9.92344L7.58125 11.2614C7.54921 11.336 7.49233 11.3973 7.42027 11.4348C7.3482 11.4723 7.26537 11.4838 7.18583 11.4672L4.25 10.8443L5.2575 13.9426C5.2842 14.0241 5.28022 14.1126 5.24631 14.1914C5.2124 14.2702 5.15089 14.3339 5.07333 14.3705L3.925 14.9068L9.02208 19.0343C9.07917 19.0806 9.12031 19.1437 9.13974 19.2146C9.15917 19.2855 9.15591 19.3607 9.13042 19.4297L8.50208 21.163L13.155 20.3451C13.2308 20.3321 13.3086 20.3362 13.3827 20.3572C13.4567 20.3782 13.5251 20.4156 13.5828 20.4665C13.6405 20.5174 13.686 20.5806 13.716 20.6515C13.746 20.7224 13.7598 20.7991 13.7562 20.8759L13.5125 25.5505H14.4875Z" fill="white"/>
</g>
</g>
<rect x="0.5" y="0.5" width="27" height="27" rx="13.5" stroke="#FF0000"/>
<defs>
<clipPath id="clip0_1136_54001">
<rect width="28" height="28" rx="14" fill="white"/>
</clipPath>
<clipPath id="clip1_1136_54001">
<rect width="56.257" height="28.1285" fill="white" transform="translate(-14)"/>
</clipPath>
<clipPath id="clip2_1136_54001">
<rect width="52" height="26" fill="white" transform="translate(-12 1.55469)"/>
</clipPath>
</defs>
</svg>
