<svg width="28" height="28" viewBox="0 0 28 28" fill="none" xmlns="http://www.w3.org/2000/svg">
<g clip-path="url(#clip0_1136_53619)">
<rect width="28" height="28" rx="14" fill="white"/>
<g clip-path="url(#clip1_1136_53619)">
<path d="M-14 0H42.257V28.1285H-14V0Z" fill="#008751"/>
<path d="M7.69995 0H20.3V28H7.69995V0Z" fill="white"/>
</g>
<g clip-path="url(#clip2_1136_53619)">
<path d="M-12.9 0.556885H40.3V28.5569H-12.9" fill="#B31942"/>
<path d="M-12.9 3.78754H40.3H-12.9ZM40.3 8.09523H-12.9H40.3ZM-12.9 12.4029H40.3H-12.9ZM40.3 16.7106H-12.9H40.3ZM-12.9 21.0183H40.3H-12.9ZM40.3 25.326H-12.9H40.3Z" fill="black"/>
<path d="M-12.9 3.78754H40.3M40.3 8.09523H-12.9M-12.9 12.4029H40.3M40.3 16.7106H-12.9M-12.9 21.0183H40.3M40.3 25.326H-12.9" stroke="white" stroke-width="2.15385"/>
<path d="M-12.9 0.556885H8.37998V15.6338H-12.9" fill="#0A3161"/>
<path d="M-0.486786 1.20435L0.0196117 2.76288L-1.30615 1.79965H0.332587L-0.993184 2.76288L-0.486786 1.20435Z" fill="white"/>
<path d="M-0.486786 4.21954L0.0196117 5.77808L-1.30615 4.81485H0.332587L-0.993184 5.77808L-0.486786 4.21954Z" fill="white"/>
<path d="M-0.486786 7.23468L0.0196117 8.79322L-1.30615 7.82999H0.332587L-0.993184 8.79322L-0.486786 7.23468Z" fill="white"/>
<path d="M-0.486786 10.2499L0.0196117 11.8084L-1.30615 10.8452H0.332587L-0.993184 11.8084L-0.486786 10.2499Z" fill="white"/>
<path d="M-0.486786 13.2657L0.0196117 14.8243L-1.30615 13.8611H0.332587L-0.993184 14.8243L-0.486786 13.2657Z" fill="white"/>
<path d="M1.28653 2.71033L1.79293 4.26886L0.467163 3.30564H2.1059L0.780131 4.26886L1.28653 2.71033Z" fill="white"/>
<path d="M1.28653 5.72546L1.79293 7.284L0.467163 6.32077H2.1059L0.780131 7.284L1.28653 5.72546Z" fill="white"/>
<path d="M1.28653 8.74066L1.79293 10.2992L0.467163 9.33597H2.1059L0.780131 10.2992L1.28653 8.74066Z" fill="white"/>
<path d="M1.28653 11.7579L1.79293 13.3165L0.467163 12.3532H2.1059L0.780131 13.3165L1.28653 11.7579Z" fill="white"/>
<path d="M3.05997 1.20398L3.56636 2.76252L2.2406 1.79929H3.87934L2.55357 2.76252L3.05997 1.20398Z" fill="white"/>
<path d="M3.05997 4.21918L3.56636 5.77771L2.2406 4.81449H3.87934L2.55357 5.77771L3.05997 4.21918Z" fill="white"/>
<path d="M3.05997 7.23431L3.56636 8.79285L2.2406 7.82962H3.87934L2.55357 8.79285L3.05997 7.23431Z" fill="white"/>
<path d="M3.05997 10.2495L3.56636 11.808L2.2406 10.8448H3.87934L2.55357 11.808L3.05997 10.2495Z" fill="white"/>
<path d="M3.05997 13.2654L3.56636 14.8239L2.2406 13.8607H3.87934L2.55357 14.8239L3.05997 13.2654Z" fill="white"/>
<path d="M4.83304 2.70996L5.33944 4.2685L4.01367 3.30527H5.65241L4.32664 4.2685L4.83304 2.70996Z" fill="white"/>
<path d="M4.83304 5.7251L5.33944 7.28364L4.01367 6.32041H5.65241L4.32664 7.28364L4.83304 5.7251Z" fill="white"/>
<path d="M4.83304 8.7403L5.33944 10.2988L4.01367 9.3356H5.65241L4.32664 10.2988L4.83304 8.7403Z" fill="white"/>
<path d="M4.83304 11.7576L5.33944 13.3161L4.01367 12.3529H5.65241L4.32664 13.3161L4.83304 11.7576Z" fill="white"/>
<path d="M6.60648 1.20361L7.11287 2.76215L5.78711 1.79892H7.42585L6.10008 2.76215L6.60648 1.20361Z" fill="white"/>
<path d="M6.60648 4.21881L7.11287 5.77735L5.78711 4.81412H7.42585L6.10008 5.77735L6.60648 4.21881Z" fill="white"/>
<path d="M6.60648 7.23395L7.11287 8.79249L5.78711 7.82926H7.42585L6.10008 8.79249L6.60648 7.23395Z" fill="white"/>
<path d="M6.60648 10.2491L7.11287 11.8077L5.78711 10.8445H7.42585L6.10008 11.8077L6.60648 10.2491Z" fill="white"/>
<path d="M6.60648 13.265L7.11287 14.8236L5.78711 13.8603H7.42585L6.10008 14.8236L6.60648 13.265Z" fill="white"/>
</g>
</g>
<defs>
<clipPath id="clip0_1136_53619">
<rect width="28" height="28" rx="14" fill="white"/>
</clipPath>
<clipPath id="clip1_1136_53619">
<rect width="56.257" height="28.1285" fill="white" transform="translate(-14)"/>
</clipPath>
<clipPath id="clip2_1136_53619">
<rect width="53.2" height="28" fill="white" transform="translate(-12.9 0.554688)"/>
</clipPath>
</defs>
</svg>
