<svg width="96" height="86" viewBox="0 0 96 86" fill="none" xmlns="http://www.w3.org/2000/svg">
<g clip-path="url(#clip0_1144_67917)">
<rect width="49.111" height="49.111" rx="24.5555" transform="matrix(0.617701 -0.786413 0.962572 0.271028 9.37344 59.3061)" fill="black"/>
<path d="M60.8438 39.9709L64.3134 50.6122L48.419 55.7965L48.4113 55.799L47.1439 51.8841L57.1919 48.607L54.9964 41.878L60.8438 39.9709ZM50.8729 43.2228L52.1722 47.1937L46.24 49.1284L46.2297 49.1255L46.0024 48.4284L45.8963 48.09L44.9407 45.1575L50.8729 43.2228ZM58.6657 33.303L59.9411 37.2137L54.0969 39.1197L52.8215 35.2091L58.6657 33.303ZM43.0086 53.2321L44.2844 57.1439L38.4392 59.0496L37.1638 55.1389L43.0086 53.2321ZM48.6969 36.5508L49.9721 40.4633L39.9164 43.7428L42.1092 50.4665L36.2625 52.3727L32.7939 41.7374L48.6969 36.5508Z" fill="#F3BA2F"/>
<rect x="26.1814" y="47.5183" width="3.27407" height="24.5555" transform="rotate(-18.1615 26.1814 47.5183)" fill="#F3BA2F"/>
<rect x="49.4886" y="45.0415" width="3.27407" height="24.5555" transform="rotate(-18.1615 49.4886 45.0415)" fill="#F3BA2F"/>
<rect x="62.4914" y="32.1635" width="3.27407" height="24.5555" transform="rotate(-18.1615 62.4914 32.1635)" fill="#F3BA2F"/>
<rect x="32.3777" y="50.6554" width="4.9111" height="24.5555" transform="rotate(-18.1615 32.3777 50.6554)" fill="#F3BA2F"/>
<rect x="55.6855" y="48.1781" width="4.9111" height="24.5555" transform="rotate(-18.1615 55.6855 48.1781)" fill="#F3BA2F"/>
<rect x="68.1796" y="33.7409" width="4.9111" height="24.5555" transform="rotate(-18.1615 68.1796 33.7409)" fill="#F3BA2F"/>
</g>
<g clip-path="url(#clip1_1144_67917)">
<rect width="49.111" height="49.111" rx="24.5555" transform="matrix(0.617701 -0.786413 0.962572 0.271028 6.83562 51.3293)" fill="white"/>
<path d="M58.3073 31.9931L61.777 42.6344L45.8826 47.8187L45.8749 47.8212L44.6075 43.9062L54.6555 40.6292L52.46 33.9001L58.3073 31.9931ZM48.3365 35.245L49.6358 39.2158L43.7036 41.1505L43.6933 41.1476L43.466 40.4506L43.3599 40.1121L42.4043 37.1797L48.3365 35.245ZM56.1293 25.3252L57.4047 29.2359L51.5605 31.1419L50.2851 27.2312L56.1293 25.3252ZM40.4722 45.2543L41.748 49.166L35.9028 51.0718L34.6274 47.1611L40.4722 45.2543ZM46.1605 28.573L47.4357 32.4854L37.38 35.765L39.5728 42.4886L33.7261 44.3949L30.2575 33.7595L46.1605 28.573Z" fill="#F3BA2F"/>
</g>
<rect x="2.58696" y="-0.843703" width="45.8369" height="45.8369" rx="22.9185" transform="matrix(0.617701 -0.786413 0.962572 0.271028 8.63674 52.7487)" stroke="#646464" stroke-width="3.27407"/>
<defs>
<clipPath id="clip0_1144_67917">
<rect width="49.111" height="49.111" rx="24.5555" transform="matrix(0.617701 -0.786413 0.962572 0.271028 9.37344 59.3061)" fill="white"/>
</clipPath>
<clipPath id="clip1_1144_67917">
<rect width="49.111" height="49.111" rx="24.5555" transform="matrix(0.617701 -0.786413 0.962572 0.271028 6.83562 51.3293)" fill="white"/>
</clipPath>
</defs>
</svg>
