<svg width="50" height="50" viewBox="0 0 50 50" fill="none" xmlns="http://www.w3.org/2000/svg">
<path d="M20.5909 8.24508C22.4747 4.7222 27.5252 4.7222 29.4091 8.24508L29.6122 8.6248C30.6382 10.5434 32.7872 11.5783 34.927 11.1843L35.3505 11.1063C39.2794 10.3827 42.4283 14.3313 40.8486 18.0007L40.6783 18.3962C39.818 20.3946 40.3487 22.72 41.991 24.1473L42.316 24.4297C45.3313 27.0503 44.2075 31.9742 40.3537 33.0269L39.9383 33.1404C37.8395 33.7137 36.3523 35.5786 36.2604 37.7524L36.2422 38.1826C36.0734 42.174 31.523 44.3653 28.2972 42.0087L27.9495 41.7547C26.1926 40.4712 23.8074 40.4712 22.0505 41.7547L21.7028 42.0087C18.477 44.3653 13.9266 42.174 13.7578 38.1826L13.7396 37.7524C13.6477 35.5786 12.1605 33.7137 10.0617 33.1404L9.64629 33.0269C5.79253 31.9742 4.66869 27.0503 7.68403 24.4297L8.00905 24.1473C9.65128 22.72 10.182 20.3946 9.32169 18.3962L9.15142 18.0007C7.57171 14.3313 10.7206 10.3827 14.6495 11.1063L15.073 11.1843C17.2128 11.5783 19.3618 10.5434 20.3878 8.6248L20.5909 8.24508Z" fill="white"/>
<path d="M32.0833 24.8483V25.5C32.0824 27.0275 31.5878 28.5137 30.6732 29.7371C29.7587 30.9605 28.4731 31.8555 27.0083 32.2886C25.5436 32.7217 23.978 32.6697 22.5452 32.1403C21.1124 31.611 19.8891 30.6326 19.0577 29.3512C18.2264 28.0698 17.8315 26.554 17.932 25.0299C18.0325 23.5057 18.623 22.0549 19.6154 20.8937C20.6078 19.7326 21.949 18.9234 23.4389 18.5868C24.9288 18.2501 26.4876 18.4041 27.8829 19.0258" stroke="black" stroke-width="1.41667" stroke-linecap="round" stroke-linejoin="round"/>
<path d="M32.0833 19.8333L25 26.9237L22.875 24.7987" stroke="black" stroke-width="1.41667" stroke-linecap="round" stroke-linejoin="round"/>
</svg>
