<svg width="128" height="120" viewBox="0 0 128 120" fill="none" xmlns="http://www.w3.org/2000/svg">
<g clip-path="url(#clip0_1144_67929)">
<rect width="61.7201" height="61.7201" rx="30.8601" transform="matrix(0.452577 -0.891725 0.996936 0.0782182 21.9707 89.4013)" fill="black"/>
<path d="M80.679 52.9615L87.5637 65.2288L69.2311 75.5176L66.71 71.0024L78.2934 64.5015L73.9396 56.7438L80.679 52.9615ZM69.1848 59.4124L71.7598 63.9889L64.9213 67.8268L64.9077 67.8257L64.4573 67.0216L64.2436 66.6309L62.3463 63.2503L69.1848 59.4124ZM76.3617 45.2755L78.8925 49.7834L72.1546 53.5649L69.6241 49.0562L76.3617 45.2755ZM61.9439 73.6773L64.4738 78.185L57.7368 81.9667L55.2064 77.4579L61.9439 73.6773ZM64.8692 51.7211L67.4001 56.2307L55.8068 62.7372L60.1569 70.4882L53.418 74.2697L46.5365 62.0099L64.8692 51.7211Z" fill="#7885D5"/>
<rect x="39.8026" y="70.7551" width="4.11467" height="30.8601" transform="rotate(-29.4008 39.8026 70.7551)" fill="#7885D5"/>
<rect x="67.9247" y="61.9935" width="4.11467" height="30.8601" transform="rotate(-29.4008 67.9247 61.9935)" fill="#7885D5"/>
<rect x="80.798" y="42.9345" width="4.11467" height="30.8601" transform="rotate(-29.4008 80.798 42.9345)" fill="#7885D5"/>
<rect x="48.2078" y="73.1034" width="6.17201" height="30.8601" transform="rotate(-29.4008 48.2078 73.1034)" fill="#7885D5"/>
<rect x="76.3321" y="64.3418" width="6.17201" height="30.8601" transform="rotate(-29.4008 76.3321 64.3418)" fill="#7885D5"/>
<rect x="88.196" y="43.4843" width="6.17201" height="30.8601" transform="rotate(-29.4008 88.196 43.4843)" fill="#7885D5"/>
</g>
<rect x="2.98214" y="-1.67366" width="57.6054" height="57.6054" rx="28.8027" transform="matrix(0.452577 -0.891725 0.996936 0.0782182 20.1926 81.3066)" fill="white"/>
<rect x="2.98214" y="-1.67366" width="57.6054" height="57.6054" rx="28.8027" transform="matrix(0.452577 -0.891725 0.996936 0.0782182 20.1926 81.3066)" stroke="#646464" stroke-width="4.11467"/>
<path d="M49.6542 59.067C49.8557 58.9206 50.1105 58.8576 50.3627 58.8918L73.6273 62.0465C74.0511 62.104 74.1967 62.6232 73.8581 62.8693L68.6649 66.642C68.4634 66.7884 68.2086 66.8514 67.9564 66.8172L44.6918 63.6625C44.268 63.6051 44.1224 63.0858 44.461 62.8397L49.6542 59.067Z" fill="url(#paint0_linear_1144_67929)"/>
<path d="M51.8812 42.6435C52.0827 42.4971 52.3376 42.4341 52.5897 42.4683L75.8544 45.623C76.2781 45.6804 76.4238 46.1997 76.0851 46.4457L70.892 50.2185C70.6905 50.3648 70.4356 50.4278 70.1835 50.3937L46.9189 47.239C46.4951 47.1815 46.3494 46.6622 46.6881 46.4162L51.8812 42.6435Z" fill="url(#paint1_linear_1144_67929)"/>
<path d="M70.4509 53.471C70.2957 53.2763 70.0668 53.1477 69.8147 53.1135L46.55 49.9588C46.1263 49.9013 45.8476 50.363 46.1085 50.6904L50.1094 55.7098C50.2647 55.9046 50.4935 56.0332 50.7457 56.0674L62.378 57.6448L74.0103 59.2221C74.4341 59.2796 74.7128 58.8179 74.4518 58.4905L70.4509 53.471Z" fill="url(#paint2_linear_1144_67929)"/>
<defs>
<linearGradient id="paint0_linear_1144_67929" x1="67.7009" y1="38.4099" x2="48.6071" y2="66.4301" gradientUnits="userSpaceOnUse">
<stop stop-color="#00FFA3"/>
<stop offset="1" stop-color="#DC1FFF"/>
</linearGradient>
<linearGradient id="paint1_linear_1144_67929" x1="67.7009" y1="38.4099" x2="48.6071" y2="66.4301" gradientUnits="userSpaceOnUse">
<stop stop-color="#00FFA3"/>
<stop offset="1" stop-color="#DC1FFF"/>
</linearGradient>
<linearGradient id="paint2_linear_1144_67929" x1="67.7009" y1="38.4099" x2="48.6071" y2="66.4301" gradientUnits="userSpaceOnUse">
<stop stop-color="#00FFA3"/>
<stop offset="1" stop-color="#DC1FFF"/>
</linearGradient>
<clipPath id="clip0_1144_67929">
<rect width="61.7201" height="61.7201" rx="30.8601" transform="matrix(0.452577 -0.891725 0.996936 0.0782182 21.9707 89.4013)" fill="white"/>
</clipPath>
</defs>
</svg>
